<svg width="55" height="55" fill="none" xmlns="http://www.w3.org/2000/svg"><path d="M21.871 24.94c.534-.386.792-1.025.792-1.903a2.47 2.47 0 00-.252-1.203 1.936 1.936 0 00-.712-.73 2.75 2.75 0 00-1.019-.369 5.945 5.945 0 00-1.184-.104H15.18v4.892h4.672c.804.007 1.485-.19 2.02-.583zm.724 4.42c-.601-.46-1.405-.688-2.406-.688h-5.021v5.77h4.923c.46 0 .884-.042 1.295-.128a3.1 3.1 0 001.093-.442c.313-.203.565-.48.755-.835.184-.356.276-.81.276-1.357 0-1.086-.307-1.854-.915-2.32zM27.5 0C12.314 0 0 12.314 0 27.5S12.314 55 27.5 55 55 42.686 55 27.5 42.686 0 27.5 0zm5.31 17.611h8.495v2.069H32.81v-2.07zM27.5 34.67a5.495 5.495 0 01-1.657 1.902 7.286 7.286 0 01-2.382 1.087c-.893.24-1.814.357-2.738.35H10.558V17.07h9.883c1 0 1.909.092 2.738.264.822.172 1.522.466 2.111.865a4.078 4.078 0 011.369 1.596c.32.657.485 1.48.485 2.456 0 1.056-.24 1.927-.718 2.633-.485.706-1.185 1.277-2.136 1.725 1.295.368 2.246 1.025 2.872 1.946.639.933.952 2.05.952 3.364 0 1.068-.203 1.982-.614 2.75zm17.114-3.241H33.663c0 1.19.411 2.332 1.031 2.946.626.608 1.523.915 2.695.915.847 0 1.565-.215 2.18-.639.607-.423.975-.871 1.11-1.338h3.67c-.588 1.823-1.485 3.124-2.7 3.91-1.203.786-2.676 1.179-4.389 1.179-1.197 0-2.271-.197-3.235-.571a6.877 6.877 0 01-2.45-1.627 7.438 7.438 0 01-1.54-2.529 9.203 9.203 0 01-.546-3.229c0-1.135.19-2.191.558-3.173a7.372 7.372 0 014.046-4.23c1-.417 2.074-.626 3.16-.613 1.29 0 2.407.245 3.377.749A6.85 6.85 0 0143 25.192c.62.84 1.055 1.799 1.331 2.879.264 1.062.356 2.179.283 3.358zm-7.489-5.869c-.663 0-1.221.117-1.651.344a3.46 3.46 0 00-1.056.835 2.97 2.97 0 00-.559 1.068 4.59 4.59 0 00-.19.994h6.783c-.098-1.062-.466-1.847-.958-2.4-.515-.546-1.344-.84-2.369-.84z" fill="#FC4A69"/></svg>