<svg width="390" height="378" fill="none" xmlns="http://www.w3.org/2000/svg"><path d="M195 0C87.315 0 0 84.628 0 189s87.315 189 195 189 195-84.628 195-189S302.685 0 195 0zm0 345.938c-89.404 0-161.92-70.285-161.92-156.938 0-86.653 72.516-156.938 161.92-156.938 89.404 0 161.92 70.285 161.92 156.938 0 86.653-72.516 156.938-161.92 156.938zM156.696 121.5h-20.892c-1.916 0-3.483 1.519-3.483 3.375v128.25c0 1.856 1.567 3.375 3.483 3.375h20.892c1.916 0 3.483-1.519 3.483-3.375v-128.25c0-1.856-1.567-3.375-3.483-3.375zm97.5 0h-20.892c-1.916 0-3.483 1.519-3.483 3.375v128.25c0 1.856 1.567 3.375 3.483 3.375h20.892c1.916 0 3.483-1.519 3.483-3.375v-128.25c0-1.856-1.567-3.375-3.483-3.375z" fill="#FC4A69" fill-opacity=".25"/></svg>