<svg width="155" height="148" fill="none" xmlns="http://www.w3.org/2000/svg"><g clip-path="url(#clip0)"><path d="M77.5 0c-8.418 0-14.9 6.706-14.9 14.724 0 7.723-.057 14.48-.057 14.48H47.577c-.282 0-.555.03-.823.073H42.59V43.16h69.818V29.277h-4.163a5.23 5.23 0 00-.823-.073H92.457s.17-6.117.17-14.435C92.627 7.046 85.917 0 77.5 0zM22.63 14.083V148h109.74V14.083H97.603v9.702h24.721V138.28H32.686V23.785h24.71v-9.702H22.63zm54.87.18c2.758 0 4.986 2.12 4.986 4.743 0 2.628-2.228 4.751-4.986 4.751-2.758 0-4.986-2.123-4.986-4.751 0-2.624 2.228-4.743 4.986-4.743zm-34.91 38.31v4.752h4.987v-4.752H42.59zm14.967.09v4.752h54.852v-4.751H57.557zM42.591 70.496v4.751h4.986v-4.75H42.59zm14.966.09v4.76h54.852v-4.76H57.557zM42.591 88.417v4.751h4.986v-4.75H42.59zm14.966.1v4.75h54.852v-4.75H57.557zm-14.966 17.831v4.751h4.986v-4.751H42.59zm14.966.099v4.752h54.852v-4.752H57.557zM42.591 124.27v4.751h4.986v-4.751H42.59zm14.966.099v4.751h54.852v-4.751H57.557z" fill="#FC4A69"/></g><defs><clipPath id="clip0"><path fill="#fff" d="M0 0h155v148H0z"/></clipPath></defs></svg>