<svg width="190" height="190" fill="none" xmlns="http://www.w3.org/2000/svg"><path d="M39.583 15.834h15.834v23.75H39.583v-23.75zm31.667 0h15.833v23.75H71.25v-23.75zm31.667 0h15.833v23.75h-15.833v-23.75zm47.5 55.416h-15.834V55.417H23.75V142.5c0 13.094 10.656 23.75 23.75 23.75h63.333c13.094 0 23.75-10.656 23.75-23.75h15.834c8.732 0 15.833-7.101 15.833-15.833V87.083c0-8.732-7.101-15.833-15.833-15.833zM118.75 142.5a7.916 7.916 0 01-7.917 7.917H47.5a7.915 7.915 0 01-7.917-7.917V71.25h79.167v71.25zm15.833-15.833V87.083h15.834l.016 39.584h-15.85z" fill="#FC4A69"/></svg>