<svg width="190" height="190" fill="none" xmlns="http://www.w3.org/2000/svg"><path fill-rule="evenodd" clip-rule="evenodd" d="M95 174.167c-43.724 0-79.167-35.443-79.167-79.167 0-43.724 35.443-79.166 79.167-79.166 43.724 0 79.167 35.442 79.167 79.166S138.724 174.167 95 174.167zm31.667-71.25a31.669 31.669 0 01-63.334 0h63.334zM95 158.333a63.336 63.336 0 0044.784-18.549 63.336 63.336 0 000-89.567 63.336 63.336 0 00-89.567 0A63.333 63.333 0 0095 158.333zm-19.792-71.25a11.875 11.875 0 100-23.75 11.875 11.875 0 000 23.75zm39.584 0a11.876 11.876 0 100-23.752 11.876 11.876 0 000 23.752z" fill="#FC4A69"/></svg>