<svg width="55" height="55" fill="none" xmlns="http://www.w3.org/2000/svg"><path d="M27.503 0C12.308-.006 0 12.63 0 28.226c0 12.333 7.7 22.817 18.421 26.667 1.444.372 1.223-.682 1.223-1.401V48.6c-8.338 1.003-8.676-4.664-9.235-5.611-1.13-1.982-3.804-2.487-3.005-3.434 1.899-1.003 3.834.253 6.077 3.655 1.622 2.468 4.787 2.051 6.39 1.64a8.017 8.017 0 012.133-3.837c-8.64-1.59-12.24-7.006-12.24-13.444 0-3.124 1.001-5.996 2.968-8.312-1.254-3.819.116-7.088.3-7.574 3.57-.328 7.282 2.626 7.57 2.86 2.028-.563 4.345-.86 6.938-.86 2.605 0 4.928.31 6.974.878.694-.543 4.135-3.08 7.453-2.77.179.485 1.518 3.679.338 7.447 1.991 2.323 3.005 5.22 3.005 8.35 0 6.45-3.625 11.873-12.29 13.438a8.064 8.064 0 011.734 2.63 8.24 8.24 0 01.608 3.114v7.1c.05.568 0 1.13.922 1.13C47.166 51.232 55 40.672 55 28.232 55 12.63 42.686 0 27.503 0z" fill="#FC4A69"/></svg>