<svg width="55" height="55" fill="none" xmlns="http://www.w3.org/2000/svg"><path d="M27.5 0C12.314 0 0 12.314 0 27.5S12.314 55 27.5 55 55 42.686 55 27.5 42.686 0 27.5 0zm2.24 34.301c-2.694 3.794-8.108 4.899-12.331 3.272-4.236-1.614-7.244-6.09-6.882-10.65.092-5.58 5.23-10.472 10.81-10.282 2.676-.123 5.193 1.038 7.243 2.677a37.677 37.677 0 01-2.75 2.842c-2.461-1.7-5.966-2.186-8.428-.221-3.523 2.437-3.683 8.188-.294 10.81 3.296 2.989 9.526 1.503 10.441-3.076-2.062-.03-4.137 0-6.2-.067-.006-1.234-.012-2.462-.006-3.696 3.45-.012 6.906-.018 10.362.012.202 2.904-.184 5.985-1.964 8.38zm14.886-5.297c-1.031.012-2.062.018-3.094.024a259.392 259.392 0 00-.018 3.094h-3.088c-.012-1.031-.012-2.056-.018-3.087-1.031-.013-2.063-.019-3.094-.031v-3.075c1.031-.013 2.063-.019 3.094-.019.006-1.031.018-2.062.024-3.094h3.082l.018 3.094c1.032.012 2.063.012 3.094.019v3.075z" fill="#FC4A69"/></svg>