<svg width="55" height="55" fill="none" xmlns="http://www.w3.org/2000/svg"><path d="M27.5 0C12.312 0 0 12.312 0 27.5S12.312 55 27.5 55 55 42.688 55 27.5 42.688 0 27.5 0zm10.576 31.026s2.432 2.4 3.03 3.515c.018.023.026.046.032.057.244.41.301.728.18.966-.2.395-.887.59-1.122.607h-4.297c-.298 0-.922-.077-1.679-.599-.581-.406-1.154-1.074-1.713-1.724-.833-.968-1.555-1.805-2.283-1.805a.876.876 0 00-.272.043c-.55.178-1.255.963-1.255 3.054 0 .653-.515 1.028-.879 1.028H25.85c-.67 0-4.162-.235-7.256-3.497-3.787-3.997-7.196-12.012-7.225-12.086-.214-.519.23-.797.714-.797h4.34c.578 0 .767.353.9.665.154.364.721 1.81 1.652 3.438 1.51 2.652 2.435 3.73 3.177 3.73a.859.859 0 00.398-.104c.968-.538.788-3.99.745-4.706 0-.135-.003-1.544-.499-2.22-.355-.49-.96-.676-1.326-.745.149-.205.344-.371.57-.484.665-.333 1.862-.381 3.05-.381h.663c1.289.017 1.621.1 2.088.217.945.227.965.837.882 2.925a45.517 45.517 0 00-.051 2.054c0 .172-.009.355-.009.55-.029 1.063-.063 2.269.688 2.764a.619.619 0 00.326.095c.26 0 1.046 0 3.171-3.647a27.839 27.839 0 001.705-3.65c.043-.074.169-.303.318-.392a.762.762 0 01.355-.083h5.102c.555 0 .936.083 1.008.298.126.341-.023 1.381-2.352 4.535l-1.04 1.372c-2.11 2.767-2.11 2.908.132 5.007z" fill="#FC4A69"/></svg>